<?xml version="1.0" encoding="utf-8"?>
<!-- Generator: Adobe Illustrator 16.0.0, SVG Export Plug-In . SVG Version: 6.00 Build 0)  -->
<!DOCTYPE svg PUBLIC "-//W3C//DTD SVG 1.1//EN" "http://www.w3.org/Graphics/SVG/1.1/DTD/svg11.dtd">
<svg version="1.1" id="Layer_1" xmlns="http://www.w3.org/2000/svg" xmlns:xlink="http://www.w3.org/1999/xlink" x="0px" y="0px"
	 width="100px" height="100px" viewBox="0 0 100 100" style="enable-background:new 0 0 100 100;" xml:space="preserve">
<g>
	<path d="M93,18.9v7.2c0,1-0.4,1.8-1.1,2.5c-0.7,0.7-1.6,1.1-2.5,1.1H10.6c-1,0-1.8-0.4-2.5-1.1C7.3,27.9,7,27,7,26.1v-7.2
		c0-1,0.4-1.8,1.1-2.5c0.7-0.7,1.5-1.1,2.5-1.1h78.9c1,0,1.8,0.4,2.5,1.1C92.7,17.1,93,17.9,93,18.9z M93,47.6v7.2
		c0,1-0.4,1.8-1.1,2.5c-0.7,0.7-1.6,1.1-2.5,1.1H10.6c-1,0-1.8-0.4-2.5-1.1C7.3,56.5,7,55.7,7,54.7v-7.2c0-1,0.4-1.8,1.1-2.5
		c0.7-0.7,1.5-1.1,2.5-1.1h78.9c1,0,1.8,0.4,2.5,1.1C92.7,45.8,93,46.6,93,47.6z M93,76.2v7.2c0,1-0.4,1.8-1.1,2.5
		c-0.7,0.7-1.6,1.1-2.5,1.1H10.6c-1,0-1.8-0.4-2.5-1.1C7.3,85.2,7,84.4,7,83.4v-7.2c0-1,0.4-1.8,1.1-2.5c0.7-0.7,1.5-1.1,2.5-1.1
		h78.9c1,0,1.8,0.4,2.5,1.1C92.7,74.4,93,75.3,93,76.2z"/>
</g>
<g>
</g>
<g>
</g>
<g>
</g>
<g>
</g>
<g>
</g>
<g>
</g>
<g>
</g>
<g>
</g>
<g>
</g>
<g>
</g>
<g>
</g>
<g>
</g>
<g>
</g>
<g>
</g>
<g>
</g>
</svg>
